<svg xmlns="http://www.w3.org/2000/svg" xmlns:xlink="http://www.w3.org/1999/xlink" width="1200" height="800" viewBox="0 0 1200 800" role="img" aria-labelledby="title desc"><title id="title">Savory Mushroom Patties</title><desc id="desc">Generated recipe image based on the recipe ingredients.</desc><defs><linearGradient id="bg" x1="0" x2="1" y1="0" y2="1"><stop offset="0" stop-color="#10201b" /><stop offset="1" stop-color="#2f4534" /></linearGradient><filter id="shadow" x="-20%" y="-20%" width="140%" height="140%"><feDropShadow dx="0" dy="20" stdDeviation="24" flood-color="#09110d" flood-opacity="0.4" /></filter></defs><rect x="0" y="0" width="1200" height="800" style="fill: url(#bg)" /><circle cx="190" cy="145" r="64" style="fill: #f4c95d; opacity: 0.24" /><circle cx="1015" cy="165" r="96" style="fill: #5ab36c; opacity: 0.18" /><circle cx="960" cy="650" r="72" style="fill: #9b5632; opacity: 0.2" /><ellipse cx="600" cy="455" rx="410" ry="255" style="fill: #18221f; opacity: 0.55" /><ellipse cx="600" cy="420" rx="390" ry="245" filter="url(#shadow)" style="fill: #f7f1df" /><ellipse cx="600" cy="420" rx="318" ry="190" style="fill: #efe1bd" /><g><g><circle cx="460" cy="330" r="36" style="fill: #5ab36c; opacity: 0.96" /><circle cx="448" cy="318" r="9" style="fill: #ffffff; opacity: 0.18" /></g><g><circle cx="575" cy="290" r="43" style="fill: #5ab36c; opacity: 0.96" /><circle cx="563" cy="278" r="10" style="fill: #ffffff; opacity: 0.18" /></g><g><circle cx="710" cy="330" r="50" style="fill: #5ab36c; opacity: 0.96" /><circle cx="698" cy="318" r="12" style="fill: #ffffff; opacity: 0.18" /></g><g><circle cx="405" cy="430" r="39" style="fill: #5ab36c; opacity: 0.96" /><circle cx="393" cy="418" r="9" style="fill: #ffffff; opacity: 0.18" /><line x1="381" y1="448" x2="429" y2="410" style="stroke: #2f7f4f; stroke-width: 9; stroke-linecap: round" /></g><g><circle cx="545" cy="420" r="46" style="fill: #5ab36c; opacity: 0.96" /><circle cx="533" cy="408" r="11" style="fill: #ffffff; opacity: 0.18" /><line x1="521" y1="438" x2="569" y2="400" style="stroke: #2f7f4f; stroke-width: 9; stroke-linecap: round" /></g><g><circle cx="680" cy="440" r="53" style="fill: #5ab36c; opacity: 0.96" /><circle cx="668" cy="428" r="13" style="fill: #ffffff; opacity: 0.18" /></g><g><circle cx="800" cy="405" r="42" style="fill: #5ab36c; opacity: 0.96" /><circle cx="788" cy="393" r="10" style="fill: #ffffff; opacity: 0.18" /></g><g><circle cx="500" cy="535" r="49" style="fill: #5ab36c; opacity: 0.96" /><circle cx="488" cy="523" r="12" style="fill: #ffffff; opacity: 0.18" /></g><g><circle cx="635" cy="535" r="38" style="fill: #5ab36c; opacity: 0.96" /><circle cx="623" cy="523" r="9" style="fill: #ffffff; opacity: 0.18" /></g><g><circle cx="735" cy="525" r="45" style="fill: #5ab36c; opacity: 0.96" /><circle cx="723" cy="513" r="11" style="fill: #ffffff; opacity: 0.18" /></g><g><circle cx="460" cy="330" r="52" style="fill: #9d7b5f; opacity: 0.96" /><circle cx="448" cy="318" r="13" style="fill: #ffffff; opacity: 0.18" /><path d="M439 336 Q460 300 483 336" style="fill: none; stroke: #5f4738; stroke-width: 8; stroke-linecap: round" /></g><g><circle cx="575" cy="290" r="41" style="fill: #5ab36c; opacity: 0.96" /><circle cx="563" cy="278" r="10" style="fill: #ffffff; opacity: 0.18" /></g><path d="M425 500 C510 455 585 460 670 505" style="fill: none; stroke: #5ab36c; stroke-width: 18; stroke-linecap: round" /><path d="M735 345 C795 310 850 318 910 360" style="fill: none; stroke: #5ab36c; stroke-width: 15; stroke-linecap: round" /><circle cx="812" cy="502" r="12" style="fill: #9b5632" /><circle cx="365" cy="370" r="10" style="fill: #9b5632" /><circle cx="624" cy="360" r="9" style="fill: #9b5632" /></g><path d="M290 615 C430 700 770 700 910 615" style="fill: none; stroke: #fbf8ec; stroke-width: 26; stroke-linecap: round; opacity: 0.65" /><text x="600" y="735" style="fill: #f7f4e8; font-family: Inter, Arial, sans-serif; font-size: 42; font-weight: 800; text-anchor: middle">Savory Mushroom Patties</text></svg>