<svg xmlns="http://www.w3.org/2000/svg" width="1200" height="800" viewBox="0 0 1200 800" role="img" aria-labelledby="title desc">
  <title id="title">1 Small Onion Pepperpot Soup</title>
  <desc id="desc">An illustrated bowl whose colors and shapes reflect this recipe's ingredients.</desc>
  <defs>
    <linearGradient id="bg" x1="0" y1="0" x2="1" y2="1">
      <stop offset="0" stop-color="#10201b"/>
      <stop offset="1" stop-color="#2f4534"/>
    </linearGradient>
    <filter id="shadow" x="-20%" y="-20%" width="140%" height="150%">
      <feDropShadow dx="0" dy="20" stdDeviation="24" flood-color="#09110d" flood-opacity=".42"/>
    </filter>
  </defs>
  <rect width="1200" height="800" fill="url(#bg)"/>
  <circle cx="190" cy="145" r="64" fill="#f4c95d" opacity=".24"/>
  <circle cx="1015" cy="165" r="96" fill="#5ab36c" opacity=".18"/>
  <circle cx="960" cy="650" r="72" fill="#9b5632" opacity=".2"/>
  <ellipse cx="600" cy="455" rx="410" ry="255" fill="#18221f" opacity=".55"/>
  <ellipse cx="600" cy="420" rx="390" ry="245" fill="#f7f1df" filter="url(#shadow)"/>
  <ellipse cx="600" cy="420" rx="318" ry="190" fill="#efe1bd"/>
  <circle cx="460" cy="330" r="36" fill="#5ab36c" opacity=".96"/>
  <circle cx="448" cy="318" r="9" fill="#fff" opacity=".18"/>
  <circle cx="575" cy="290" r="43" fill="#5ab36c" opacity=".96"/>
  <circle cx="563" cy="278" r="10" fill="#fff" opacity=".18"/>
  <circle cx="710" cy="330" r="50" fill="#5ab36c" opacity=".96"/>
  <circle cx="698" cy="318" r="12" fill="#fff" opacity=".18"/>
  <circle cx="405" cy="430" r="39" fill="#5ab36c" opacity=".96"/>
  <circle cx="393" cy="418" r="9" fill="#fff" opacity=".18"/>
  <circle cx="545" cy="420" r="46" fill="#5ab36c" opacity=".96"/>
  <circle cx="533" cy="408" r="11" fill="#fff" opacity=".18"/>
  <circle cx="680" cy="440" r="53" fill="#5ab36c" opacity=".96"/>
  <circle cx="668" cy="428" r="13" fill="#fff" opacity=".18"/>
  <circle cx="800" cy="405" r="42" fill="#5ab36c" opacity=".96"/>
  <circle cx="788" cy="393" r="10" fill="#fff" opacity=".18"/>
  <circle cx="500" cy="535" r="49" fill="#5ab36c" opacity=".96"/>
  <circle cx="488" cy="523" r="12" fill="#fff" opacity=".18"/>
  <circle cx="635" cy="535" r="38" fill="#5ab36c" opacity=".96"/>
  <circle cx="623" cy="523" r="9" fill="#fff" opacity=".18"/>
  <circle cx="735" cy="525" r="45" fill="#5ab36c" opacity=".96"/>
  <circle cx="723" cy="513" r="11" fill="#fff" opacity=".18"/>
  <circle cx="812" cy="502" r="12" fill="#9b5632"/>
  <circle cx="365" cy="370" r="10" fill="#9b5632"/>
  <circle cx="624" cy="360" r="9" fill="#9b5632"/>
  <path d="M290 615 C430 700 770 700 910 615" fill="none" stroke="#fbf8ec" stroke-width="26" stroke-linecap="round" opacity=".65"/>
  <text x="600" y="735" fill="#f7f4e8" font-family="system-ui, sans-serif" font-size="42" font-weight="800" text-anchor="middle">1 Small Onion Pepperpot Soup</text>
</svg>